<?xml version="1.0" standalone="no"?><!DOCTYPE svg PUBLIC "-//W3C//DTD SVG 1.1//EN" "http://www.w3.org/Graphics/SVG/1.1/DTD/svg11.dtd"><svg height="1024" node-id="1" sillyvg="true" template-height="1024" template-width="1024" version="1.1" viewBox="0 0 1024 1024" width="1024" xmlns="http://www.w3.org/2000/svg" xmlns:xlink="http://www.w3.org/1999/xlink"><defs node-id="49"><radialGradient cx="0.5" cy="0.19668992" fx="0.5" fy="0.19668992" gradientTransform="matrix(0 1 -0.912281 0 0.67943655 -0.30331)" gradientUnits="objectBoundingBox" id="radialGradient-1" node-id="5" r="0.9393923" rev="1" spreadMethod="pad"><stop offset="0" stop-color="#ffe476"></stop><stop offset="0.41387266" stop-color="#fcec6c"></stop><stop offset="1" stop-color="#ffb02f"></stop></radialGradient><filter height="1.173" id="filter-3" node-id="10" width="1.158" x="-0.079" y="-0.087"><feGaussianBlur color-interpolation-filters="linearRGB" in="SourceAlpha" result="shadowBlurInner1" stdDeviation="64 64"></feGaussianBlur><feOffset color-interpolation-filters="linearRGB" dx="0" dy="16" in="shadowBlurInner1" result="shadowOffsetInner1"></feOffset><feComposite color-interpolation-filters="linearRGB" in="shadowOffsetInner1" in2="SourceAlpha" k1="0" k2="-1" k3="1" k4="0" operator="arithmetic" result="shadowInnerInner1"></feComposite><feColorMatrix color-interpolation-filters="linearRGB" in="shadowInnerInner1" result="result4" type="matrix" values="0 0 0 0 0.968627451 0 0 0 0 0.68627451 0 0 0 0 0.270588235 0 0 0 0.501145583 0"></feColorMatrix></filter><filter height="2.8" id="filter-4" node-id="15" width="2.636" x="-0.818" y="-0.9"><feGaussianBlur color-interpolation-filters="linearRGB" in="SourceGraphic" result="result1" stdDeviation="48 48"></feGaussianBlur></filter><filter height="2.8" id="filter-5" node-id="17" width="2.636" x="-0.818" y="-0.9"><feGaussianBlur color-interpolation-filters="linearRGB" in="SourceGraphic" result="result1" stdDeviation="48 48"></feGaussianBlur></filter><filter height="1.767" id="filter-7" node-id="20" width="1.298" x="-0.149" y="-0.383"><feGaussianBlur color-interpolation-filters="linearRGB" in="SourceAlpha" result="shadowBlurInner1" stdDeviation="16 16"></feGaussianBlur><feOffset color-interpolation-filters="linearRGB" dx="0" dy="16" in="shadowBlurInner1" result="shadowOffsetInner1"></feOffset><feComposite color-interpolation-filters="linearRGB" in="shadowOffsetInner1" in2="SourceAlpha" k1="0" k2="-1" k3="1" k4="0" operator="arithmetic" result="shadowInnerInner1"></feComposite><feColorMatrix color-interpolation-filters="linearRGB" in="shadowInnerInner1" result="result4" type="matrix" values="0 0 0 0 0.356862745 0 0 0 0 0.145098039 0 0 0 0 0 0 0 0 0.805948324 0"></feColorMatrix></filter><filter height="1.767" id="filter-9" node-id="26" width="1.298" x="-0.149" y="-0.383"><feGaussianBlur color-interpolation-filters="linearRGB" in="SourceAlpha" result="shadowBlurInner1" stdDeviation="16 16"></feGaussianBlur><feOffset color-interpolation-filters="linearRGB" dx="0" dy="16" in="shadowBlurInner1" result="shadowOffsetInner1"></feOffset><feComposite color-interpolation-filters="linearRGB" in="shadowOffsetInner1" in2="SourceAlpha" k1="0" k2="-1" k3="1" k4="0" operator="arithmetic" result="shadowInnerInner1"></feComposite><feColorMatrix color-interpolation-filters="linearRGB" in="shadowInnerInner1" result="result4" type="matrix" values="0 0 0 0 0.356862745 0 0 0 0 0.145098039 0 0 0 0 0 0 0 0 0.805948324 0"></feColorMatrix></filter></defs><g node-id="144"><path d="M 0.00 0.00 L 1024.00 0.00 L 1024.00 1024.00 L 0.00 1024.00 Z" fill="none" group-id="1" id="矩形备份-7" node-id="33" stroke="none" target-height="1024" target-width="1024" target-x="0" target-y="0"></path><g node-id="145"><g node-id="146"><g node-id="151"><path d="M 480.33 96.38 L 494.74 96.01 L 508.85 96.26 L 522.68 97.12 L 536.25 98.56 L 549.58 100.60 L 562.92 103.25 L 575.92 106.45 L 588.61 110.18 L 600.99 114.44 L 613.09 119.24 L 625.02 124.62 L 636.57 130.48 L 647.76 136.81 L 658.59 143.63 L 669.10 150.95 L 679.27 158.75 L 689.01 166.99 L 698.35 175.66 L 707.29 184.77 L 715.83 194.34 L 723.90 204.28 L 731.49 214.61 L 738.63 225.35 L 745.30 236.49 L 751.52 248.07 L 762.83 253.33 L 773.99 258.98 L 785.01 265.01 L 795.88 271.43 L 806.62 278.25 L 819.69 287.24 L 832.40 296.74 L 844.74 306.77 L 856.73 317.34 L 866.01 326.15 L 874.97 335.23 L 883.60 344.59 L 891.93 354.24 L 899.94 364.18 L 907.61 374.40 L 914.88 384.85 L 921.75 395.53 L 928.23 406.44 L 934.32 417.61 L 939.99 428.99 L 945.18 440.56 L 949.91 452.32 L 954.16 464.28 L 957.96 476.45 L 961.23 488.74 L 963.97 501.18 L 966.16 513.79 L 967.82 526.58 L 968.93 539.55 L 969.45 552.48 L 969.35 565.54 L 968.64 578.77 L 967.30 592.16 L 965.31 605.75 L 962.49 620.58 L 959.24 634.95 L 955.57 648.88 L 951.48 662.38 L 946.98 675.47 L 942.08 688.17 L 936.63 700.86 L 930.79 713.16 L 924.57 725.06 L 917.97 736.57 L 910.98 747.73 L 903.62 758.52 L 895.80 769.08 L 887.62 779.28 L 879.08 789.13 L 870.18 798.64 L 860.91 807.81 L 851.26 816.64 L 841.32 825.09 L 831.04 833.20 L 820.42 840.98 L 809.43 848.44 L 798.08 855.57 L 786.35 862.38 L 777.63 867.78 L 768.29 873.07 L 758.29 878.22 L 747.61 883.24 L 736.96 887.78 L 725.55 892.19 L 713.34 896.45 L 700.30 900.56 L 687.42 904.20 L 673.65 907.67 L 658.94 910.97 L 643.25 914.08 L 627.85 916.75 L 611.42 919.23 L 593.93 921.49 L 575.32 923.53 L 554.17 925.39 L 533.42 926.75 L 513.07 927.61 L 493.11 927.98 L 473.52 927.87 L 453.66 927.26 L 434.28 926.15 L 415.37 924.54 L 396.91 922.45 L 378.89 919.89 L 360.69 916.75 L 343.04 913.11 L 325.91 908.98 L 309.29 904.39 L 293.16 899.32 L 279.66 894.59 L 266.57 889.51 L 253.88 884.11 L 241.57 878.37 L 229.63 872.30 L 218.05 865.90 L 206.58 859.00 L 195.53 851.76 L 184.89 844.18 L 174.64 836.25 L 164.77 827.97 L 155.29 819.34 L 146.14 810.30 L 137.42 800.89 L 129.11 791.11 L 121.21 780.93 L 113.70 770.36 L 106.59 759.39 L 100.03 748.22 L 93.90 736.64 L 88.20 724.62 L 82.92 712.15 L 78.08 699.21 L 73.68 685.77 L 69.93 672.48 L 66.63 658.70 L 63.81 644.41 L 61.46 629.58 L 59.62 614.19 L 58.29 598.22 L 57.61 583.09 L 57.50 568.57 L 57.93 554.63 L 58.88 541.24 L 60.33 528.37 L 62.37 515.28 L 64.89 502.70 L 67.87 490.60 L 71.31 478.97 L 75.19 467.78 L 79.65 456.62 L 84.53 445.89 L 89.82 435.54 L 95.52 425.58 L 101.65 415.98 L 108.24 406.63 L 115.21 397.62 L 122.56 388.93 L 130.32 380.56 L 138.47 372.50 L 146.93 364.81 L 155.75 357.41 L 164.93 350.29 L 174.49 343.45 L 184.44 336.88 L 187.37 323.41 L 190.66 310.46 L 194.31 298.03 L 198.30 286.10 L 202.63 274.63 L 207.29 263.62 L 212.28 253.05 L 217.85 242.41 L 223.73 232.20 L 229.91 222.43 L 236.41 213.08 L 243.21 204.13 L 250.32 195.57 L 257.75 187.38 L 266.93 178.18 L 276.49 169.49 L 286.45 161.29 L 296.83 153.58 L 307.64 146.34 L 318.89 139.58 L 330.34 133.40 L 342.18 127.67 L 354.43 122.40 L 367.09 117.59 L 380.18 113.23 L 393.74 109.34 L 407.17 106.05 L 420.98 103.20 L 435.19 100.79 L 449.81 98.85 L 464.85 97.37 L 480.33 96.38 Z" fill="url(#radialGradient-1)" fill-rule="evenodd" group-id="1,2,3,8" node-id="105" stroke="none" target-height="831.9669" target-width="911.9464" target-x="57.50026" target-y="96.01346"></path></g><path d="M 480.33 96.38 L 494.74 96.01 L 508.85 96.26 L 522.68 97.12 L 536.25 98.56 L 549.58 100.60 L 562.92 103.25 L 575.92 106.45 L 588.61 110.18 L 600.99 114.44 L 613.09 119.24 L 625.02 124.62 L 636.57 130.48 L 647.76 136.81 L 658.59 143.63 L 669.10 150.95 L 679.27 158.75 L 689.01 166.99 L 698.35 175.66 L 707.29 184.77 L 715.83 194.34 L 723.90 204.28 L 731.49 214.61 L 738.63 225.35 L 745.30 236.49 L 751.52 248.07 L 762.83 253.33 L 773.99 258.98 L 785.01 265.01 L 795.88 271.43 L 806.62 278.25 L 819.69 287.24 L 832.40 296.74 L 844.74 306.77 L 856.73 317.34 L 866.01 326.15 L 874.97 335.23 L 883.60 344.59 L 891.93 354.24 L 899.94 364.18 L 907.61 374.40 L 914.88 384.85 L 921.75 395.53 L 928.23 406.44 L 934.32 417.61 L 939.99 428.99 L 945.18 440.56 L 949.91 452.32 L 954.16 464.28 L 957.96 476.45 L 961.23 488.74 L 963.97 501.18 L 966.16 513.79 L 967.82 526.58 L 968.93 539.55 L 969.45 552.48 L 969.35 565.54 L 968.64 578.77 L 967.30 592.16 L 965.31 605.75 L 962.49 620.58 L 959.24 634.95 L 955.57 648.88 L 951.48 662.38 L 946.98 675.47 L 942.08 688.17 L 936.63 700.86 L 930.79 713.16 L 924.57 725.06 L 917.97 736.57 L 910.98 747.73 L 903.62 758.52 L 895.80 769.08 L 887.62 779.28 L 879.08 789.13 L 870.18 798.64 L 860.91 807.81 L 851.26 816.64 L 841.32 825.09 L 831.04 833.20 L 820.42 840.98 L 809.43 848.44 L 798.08 855.57 L 786.35 862.38 L 777.63 867.78 L 768.29 873.07 L 758.29 878.22 L 747.61 883.24 L 736.96 887.78 L 725.55 892.19 L 713.34 896.45 L 700.30 900.56 L 687.42 904.20 L 673.65 907.67 L 658.94 910.97 L 643.25 914.08 L 627.85 916.75 L 611.42 919.23 L 593.93 921.49 L 575.32 923.53 L 554.17 925.39 L 533.42 926.75 L 513.07 927.61 L 493.11 927.98 L 473.52 927.87 L 453.66 927.26 L 434.28 926.15 L 415.37 924.54 L 396.91 922.45 L 378.89 919.89 L 360.69 916.75 L 343.04 913.11 L 325.91 908.98 L 309.29 904.39 L 293.16 899.32 L 279.66 894.59 L 266.57 889.51 L 253.88 884.11 L 241.57 878.37 L 229.63 872.30 L 218.05 865.90 L 206.58 859.00 L 195.53 851.76 L 184.89 844.18 L 174.64 836.25 L 164.77 827.97 L 155.29 819.34 L 146.14 810.30 L 137.42 800.89 L 129.11 791.11 L 121.21 780.93 L 113.70 770.36 L 106.59 759.39 L 100.03 748.22 L 93.90 736.64 L 88.20 724.62 L 82.92 712.15 L 78.08 699.21 L 73.68 685.77 L 69.93 672.48 L 66.63 658.70 L 63.81 644.41 L 61.46 629.58 L 59.62 614.19 L 58.29 598.22 L 57.61 583.09 L 57.50 568.57 L 57.93 554.63 L 58.88 541.24 L 60.33 528.37 L 62.37 515.28 L 64.89 502.70 L 67.87 490.60 L 71.31 478.97 L 75.19 467.78 L 79.65 456.62 L 84.53 445.89 L 89.82 435.54 L 95.52 425.58 L 101.65 415.98 L 108.24 406.63 L 115.21 397.62 L 122.56 388.93 L 130.32 380.56 L 138.47 372.50 L 146.93 364.81 L 155.75 357.41 L 164.93 350.29 L 174.49 343.45 L 184.44 336.88 L 187.37 323.41 L 190.66 310.46 L 194.31 298.03 L 198.30 286.10 L 202.63 274.63 L 207.29 263.62 L 212.28 253.05 L 217.85 242.41 L 223.73 232.20 L 229.91 222.43 L 236.41 213.08 L 243.21 204.13 L 250.32 195.57 L 257.75 187.38 L 266.93 178.18 L 276.49 169.49 L 286.45 161.29 L 296.83 153.58 L 307.64 146.34 L 318.89 139.58 L 330.34 133.40 L 342.18 127.67 L 354.43 122.40 L 367.09 117.59 L 380.18 113.23 L 393.74 109.34 L 407.17 106.05 L 420.98 103.20 L 435.19 100.79 L 449.81 98.85 L 464.85 97.37 L 480.33 96.38 Z" fill="#000000" fill-rule="evenodd" filter="url(#filter-3)" group-id="1,2,3,9" node-id="110" stroke="none" target-height="831.9669" target-width="911.9464" target-x="57.50026" target-y="96.01346"></path></g><g node-id="147"><path d="M 848.00 576.00 L 847.69 582.63 L 846.84 589.04 L 845.44 595.25 L 843.51 601.29 L 841.07 607.15 L 838.18 612.76 L 834.84 618.12 L 831.02 623.25 L 826.82 628.06 L 822.26 632.54 L 817.31 636.71 L 811.97 640.56 L 806.38 644.00 L 800.50 647.04 L 794.32 649.68 L 787.81 651.92 L 781.20 653.67 L 774.38 654.94 L 767.32 655.72 L 760.00 656.00 L 752.68 655.72 L 745.62 654.94 L 738.80 653.67 L 732.19 651.92 L 725.68 649.68 L 719.50 647.04 L 713.62 644.00 L 708.03 640.56 L 702.69 636.71 L 697.74 632.54 L 693.18 628.06 L 688.98 623.25 L 685.16 618.12 L 681.82 612.76 L 678.93 607.15 L 676.49 601.29 L 674.56 595.25 L 673.16 589.04 L 672.31 582.63 L 672.00 576.00 L 672.31 569.37 L 673.16 562.96 L 674.56 556.75 L 676.49 550.71 L 678.93 544.85 L 681.82 539.24 L 685.16 533.88 L 688.98 528.75 L 693.18 523.94 L 697.74 519.46 L 702.69 515.29 L 708.03 511.44 L 713.62 508.00 L 719.50 504.96 L 725.68 502.32 L 732.19 500.08 L 738.80 498.33 L 745.62 497.06 L 752.68 496.28 L 760.00 496.00 L 767.32 496.28 L 774.38 497.06 L 781.20 498.33 L 787.81 500.08 L 794.32 502.32 L 800.50 504.96 L 806.38 508.00 L 811.97 511.44 L 817.31 515.29 L 822.26 519.46 L 826.82 523.94 L 831.02 528.75 L 834.84 533.88 L 838.18 539.24 L 841.07 544.85 L 843.51 550.71 L 845.44 556.75 L 846.84 562.96 L 847.69 569.37 L 848.00 576.00 Z" fill="#ff5ea4" fill-opacity="0.8" fill-rule="evenodd" filter="url(#filter-4)" group-id="1,2,4" id="椭圆形" node-id="38" stroke="none" target-height="160" target-width="176" target-x="672" target-y="496"></path></g><g node-id="148"><path d="M 368.00 576.00 L 367.69 582.63 L 366.84 589.04 L 365.44 595.25 L 363.51 601.29 L 361.07 607.15 L 358.18 612.76 L 354.84 618.12 L 351.02 623.25 L 346.82 628.06 L 342.26 632.54 L 337.31 636.71 L 331.97 640.56 L 326.38 644.00 L 320.50 647.04 L 314.32 649.68 L 307.81 651.92 L 301.20 653.67 L 294.38 654.94 L 287.32 655.72 L 280.00 656.00 L 272.68 655.72 L 265.62 654.94 L 258.80 653.67 L 252.19 651.92 L 245.68 649.68 L 239.50 647.04 L 233.62 644.00 L 228.03 640.56 L 222.69 636.71 L 217.74 632.54 L 213.18 628.06 L 208.98 623.25 L 205.16 618.12 L 201.82 612.76 L 198.93 607.15 L 196.49 601.29 L 194.56 595.25 L 193.16 589.04 L 192.31 582.63 L 192.00 576.00 L 192.31 569.37 L 193.16 562.96 L 194.56 556.75 L 196.49 550.71 L 198.93 544.85 L 201.82 539.24 L 205.16 533.88 L 208.98 528.75 L 213.18 523.94 L 217.74 519.46 L 222.69 515.29 L 228.03 511.44 L 233.62 508.00 L 239.50 504.96 L 245.68 502.32 L 252.19 500.08 L 258.80 498.33 L 265.62 497.06 L 272.68 496.28 L 280.00 496.00 L 287.32 496.28 L 294.38 497.06 L 301.20 498.33 L 307.81 500.08 L 314.32 502.32 L 320.50 504.96 L 326.38 508.00 L 331.97 511.44 L 337.31 515.29 L 342.26 519.46 L 346.82 523.94 L 351.02 528.75 L 354.84 533.88 L 358.18 539.24 L 361.07 544.85 L 363.51 550.71 L 365.44 556.75 L 366.84 562.96 L 367.69 569.37 L 368.00 576.00 Z" fill="#ff5ea4" fill-opacity="0.8" fill-rule="evenodd" filter="url(#filter-5)" group-id="1,2,5" id="椭圆形备份-6" node-id="39" stroke="none" target-height="160" target-width="176" target-x="192" target-y="496"></path></g><g node-id="149"><g node-id="153"><path d="M 258.60 471.15 L 276.69 470.73 L 288.00 470.35 L 298.71 469.89 L 308.81 469.34 L 318.32 468.72 L 327.23 468.01 L 335.53 467.22 L 343.24 466.35 L 346.86 465.88 L 353.67 464.89 L 359.87 463.82 L 368.60 462.03 L 374.15 461.09 L 387.11 458.99 L 389.36 458.58 L 393.85 457.68 L 398.21 456.67 L 404.14 454.93 L 409.07 452.96 L 412.07 451.29 L 414.31 449.51 L 415.92 447.63 L 416.75 446.03 L 417.14 444.30 L 417.08 442.38 L 416.52 440.20 L 415.18 437.47 L 413.39 434.95 L 411.11 432.64 L 408.29 430.51 L 405.27 428.76 L 401.89 427.23 L 398.11 425.95 L 393.88 424.91 L 388.20 424.06 L 382.11 423.73 L 375.54 423.96 L 369.55 424.52 L 363.34 425.24 L 353.69 426.53 L 347.09 427.49 L 334.10 429.68 L 320.79 432.52 L 307.14 436.01 L 293.14 440.20 L 278.77 445.10 L 264.00 450.75 L 255.32 454.33 L 254.44 455.04 L 253.76 456.34 L 253.35 457.92 L 253.12 459.83 L 253.18 463.72 L 253.68 466.92 L 254.43 468.70 L 255.54 470.01 L 256.97 470.86 L 258.60 471.15 Z" fill="#a0531e" fill-rule="evenodd" group-id="1,2,6,10" node-id="125" stroke="none" target-height="47.413055" target-width="164.01358" target-x="253.12265" target-y="423.73367"></path></g><path d="M 258.60 471.15 L 276.69 470.73 L 288.00 470.35 L 298.71 469.89 L 308.81 469.34 L 318.32 468.72 L 327.23 468.01 L 335.53 467.22 L 343.24 466.35 L 346.86 465.88 L 353.67 464.89 L 359.87 463.82 L 368.60 462.03 L 374.15 461.09 L 387.11 458.99 L 389.36 458.58 L 393.85 457.68 L 398.21 456.67 L 404.14 454.93 L 409.07 452.96 L 412.07 451.29 L 414.31 449.51 L 415.92 447.63 L 416.75 446.03 L 417.14 444.30 L 417.08 442.38 L 416.52 440.20 L 415.18 437.47 L 413.39 434.95 L 411.11 432.64 L 408.29 430.51 L 405.27 428.76 L 401.89 427.23 L 398.11 425.95 L 393.88 424.91 L 388.20 424.06 L 382.11 423.73 L 375.54 423.96 L 369.55 424.52 L 363.34 425.24 L 353.69 426.53 L 347.09 427.49 L 334.10 429.68 L 320.79 432.52 L 307.14 436.01 L 293.14 440.20 L 278.77 445.10 L 264.00 450.75 L 255.32 454.33 L 254.44 455.04 L 253.76 456.34 L 253.35 457.92 L 253.12 459.83 L 253.18 463.72 L 253.68 466.92 L 254.43 468.70 L 255.54 470.01 L 256.97 470.86 L 258.60 471.15 Z" fill="#000000" fill-rule="evenodd" filter="url(#filter-7)" group-id="1,2,6,11" node-id="130" stroke="none" target-height="47.413055" target-width="164.01358" target-x="253.12265" target-y="423.73367"></path></g><g node-id="150"><g node-id="155"><path d="M 764.35 471.15 L 746.26 470.73 L 734.95 470.35 L 724.25 469.89 L 714.14 469.34 L 704.63 468.72 L 695.73 468.01 L 687.42 467.22 L 679.72 466.35 L 676.09 465.88 L 669.29 464.89 L 663.08 463.82 L 654.35 462.03 L 648.81 461.09 L 635.85 458.99 L 633.59 458.58 L 629.11 457.68 L 624.74 456.67 L 618.81 454.93 L 613.88 452.96 L 610.88 451.29 L 608.64 449.51 L 607.03 447.63 L 606.20 446.03 L 605.82 444.30 L 605.87 442.38 L 606.43 440.20 L 607.77 437.47 L 609.57 434.95 L 611.84 432.64 L 614.66 430.51 L 617.68 428.76 L 621.06 427.23 L 624.85 425.95 L 629.08 424.91 L 634.75 424.06 L 640.84 423.73 L 647.41 423.96 L 653.40 424.52 L 659.61 425.24 L 669.26 426.53 L 675.86 427.49 L 688.85 429.68 L 702.16 432.52 L 715.81 436.01 L 729.81 440.20 L 744.19 445.10 L 758.95 450.75 L 767.63 454.33 L 768.51 455.04 L 769.20 456.34 L 769.61 457.92 L 769.83 459.83 L 769.78 463.72 L 769.27 466.92 L 768.52 468.70 L 767.41 470.01 L 765.98 470.86 L 764.35 471.15 Z" fill="#a0531e" fill-rule="evenodd" group-id="1,2,7,12" node-id="137" stroke="none" target-height="47.413055" target-width="164.01355" target-x="605.8174" target-y="423.73367"></path></g><path d="M 764.35 471.15 L 746.26 470.73 L 734.95 470.35 L 724.25 469.89 L 714.14 469.34 L 704.63 468.72 L 695.73 468.01 L 687.42 467.22 L 679.72 466.35 L 676.09 465.88 L 669.29 464.89 L 663.08 463.82 L 654.35 462.03 L 648.81 461.09 L 635.85 458.99 L 633.59 458.58 L 629.11 457.68 L 624.74 456.67 L 618.81 454.93 L 613.88 452.96 L 610.88 451.29 L 608.64 449.51 L 607.03 447.63 L 606.20 446.03 L 605.82 444.30 L 605.87 442.38 L 606.43 440.20 L 607.77 437.47 L 609.57 434.95 L 611.84 432.64 L 614.66 430.51 L 617.68 428.76 L 621.06 427.23 L 624.85 425.95 L 629.08 424.91 L 634.75 424.06 L 640.84 423.73 L 647.41 423.96 L 653.40 424.52 L 659.61 425.24 L 669.26 426.53 L 675.86 427.49 L 688.85 429.68 L 702.16 432.52 L 715.81 436.01 L 729.81 440.20 L 744.19 445.10 L 758.95 450.75 L 767.63 454.33 L 768.51 455.04 L 769.20 456.34 L 769.61 457.92 L 769.83 459.83 L 769.78 463.72 L 769.27 466.92 L 768.52 468.70 L 767.41 470.01 L 765.98 470.86 L 764.35 471.15 Z" fill="#000000" fill-rule="evenodd" filter="url(#filter-9)" group-id="1,2,7,13" node-id="142" stroke="none" target-height="47.413055" target-width="164.01355" target-x="605.8174" target-y="423.73367"></path></g><path d="M 284.12 579.35 L 283.34 578.83 L 279.42 575.35 L 267.57 564.49 L 249.73 548.62 L 239.16 539.57 L 227.08 529.57 L 214.44 519.54 L 200.76 509.19 L 186.63 499.09 L 171.95 489.30 L 161.94 483.06 L 151.90 477.21 L 141.81 471.74 L 131.54 466.66 L 121.44 462.21 L 111.51 458.36 L 103.88 455.82 L 96.47 453.76 L 89.24 452.15 L 82.21 450.98 L 78.33 459.37 L 75.47 465.20 L 73.16 470.57 L 72.10 473.57 L 70.88 477.54 L 68.16 488.22 L 64.50 504.68 L 72.46 506.06 L 81.27 508.19 L 91.01 511.17 L 101.78 515.09 L 113.66 520.08 L 126.75 526.23 L 141.15 533.67 L 156.95 542.54 L 174.28 552.96 L 193.22 565.07 L 213.91 579.03 L 236.45 594.99 L 260.97 613.10 L 287.60 633.53 L 291.29 633.02 L 294.73 632.07 L 297.97 630.68 L 301.00 628.86 L 303.72 626.71 L 306.17 624.21 L 308.29 621.42 L 310.03 618.38 L 311.40 615.08 L 312.35 611.63 L 312.83 608.02 L 312.85 604.22 L 312.35 600.46 L 311.42 596.94 L 310.05 593.65 L 308.27 590.55 L 306.16 587.77 L 303.71 585.27 L 300.97 583.11 L 297.99 581.34 L 294.76 579.94 L 291.38 578.98 L 287.84 578.49 L 284.12 578.47 L 284.12 579.35 Z M 749.29 579.35 L 750.06 578.83 L 753.99 575.35 L 765.83 564.49 L 783.67 548.62 L 794.25 539.57 L 806.33 529.57 L 818.96 519.54 L 832.64 509.19 L 846.77 499.09 L 861.45 489.30 L 871.46 483.06 L 881.51 477.21 L 891.59 471.74 L 901.86 466.66 L 911.96 462.21 L 921.89 458.36 L 929.52 455.82 L 936.94 453.76 L 944.16 452.15 L 951.20 450.98 L 955.08 459.37 L 957.93 465.20 L 960.25 470.57 L 961.31 473.57 L 962.52 477.54 L 965.24 488.22 L 968.90 504.68 L 960.95 506.06 L 952.14 508.19 L 942.39 511.17 L 931.63 515.09 L 919.74 520.08 L 906.65 526.23 L 892.26 533.67 L 876.45 542.54 L 859.13 552.96 L 840.18 565.07 L 819.49 579.03 L 796.95 594.99 L 772.43 613.10 L 745.80 633.53 L 742.12 633.02 L 738.67 632.07 L 735.44 630.68 L 732.41 628.86 L 729.68 626.71 L 727.23 624.21 L 725.11 621.42 L 723.37 618.38 L 722.00 615.08 L 721.06 611.63 L 720.57 608.02 L 720.56 604.22 L 721.05 600.46 L 721.99 596.94 L 723.35 593.65 L 725.13 590.55 L 727.24 587.77 L 729.69 585.27 L 732.44 583.11 L 735.41 581.34 L 738.64 579.94 L 742.03 578.98 L 745.56 578.49 L 749.29 578.47 L 749.29 579.35 Z M 147.24 753.95 L 136.56 755.37 L 126.29 757.12 L 121.59 758.15 L 117.77 759.21 L 114.39 760.50 L 112.33 761.71 L 111.38 762.70 L 111.08 763.65 L 111.30 764.64 L 114.59 772.00 L 116.18 775.72 L 118.10 779.69 L 120.40 783.67 L 123.56 788.15 L 127.38 792.60 L 132.70 797.80 L 138.88 802.98 L 147.24 809.10 L 167.95 806.74 L 193.01 803.75 L 220.20 800.21 L 233.98 798.25 L 247.31 796.20 L 260.34 794.01 L 272.11 791.81 L 283.29 789.43 L 292.39 787.14 L 295.91 785.91 L 299.10 784.29 L 302.01 782.28 L 304.63 779.90 L 306.89 777.25 L 308.82 774.31 L 310.36 771.15 L 311.48 767.83 L 312.20 764.32 L 312.46 760.75 L 312.25 757.11 L 311.54 753.39 L 310.34 749.79 L 308.75 746.53 L 306.78 743.57 L 304.44 740.89 L 301.84 738.59 L 298.97 736.63 L 295.86 735.05 L 292.61 733.91 L 289.17 733.18 L 285.67 732.91 L 282.11 733.13 L 278.46 733.85 L 270.06 736.06 L 259.92 738.33 L 249.27 740.40 L 237.57 742.43 L 225.60 744.32 L 213.26 746.10 L 188.87 749.28 L 166.24 751.92 L 147.24 753.95 Z M 716.47 774.32 L 718.48 777.36 L 720.79 780.04 L 723.44 782.40 L 726.38 784.39 L 729.52 785.97 L 732.92 787.14 L 738.42 788.50 L 746.04 790.06 L 763.94 793.11 L 784.72 796.17 L 806.48 799.11 L 827.33 801.84 L 845.36 804.23 L 858.69 806.18 L 860.53 806.19 L 862.60 805.68 L 864.98 804.53 L 868.41 802.16 L 872.32 798.67 L 876.16 794.69 L 880.23 789.99 L 884.22 785.05 L 888.21 779.87 L 895.77 769.69 L 902.43 760.84 L 896.91 759.50 L 890.41 758.27 L 882.81 757.17 L 863.25 755.00 L 839.36 752.01 L 813.33 748.37 L 800.14 746.35 L 787.39 744.24 L 774.95 742.01 L 763.77 739.79 L 753.18 737.42 L 744.67 735.18 L 741.27 734.67 L 737.99 734.58 L 734.79 734.91 L 731.65 735.64 L 728.61 736.75 L 725.78 738.19 L 723.13 739.97 L 720.66 742.11 L 718.48 744.51 L 716.60 747.18 L 715.03 750.12 L 713.76 753.39 L 713.07 756.97 L 712.84 760.54 L 713.07 764.13 L 713.76 767.65 L 714.89 771.04 L 716.47 774.32 Z" fill="#f2f2f2" fill-rule="nonzero" group-id="1,2" id="形状" node-id="46" stroke="none" target-height="358.114" target-width="904.4058" target-x="64.49909" target-y="450.98297"></path><path d="M 715.37 864.00 L 324.16 864.00 L 318.75 863.63 L 313.58 862.71 L 308.62 861.26 L 303.83 859.26 L 299.26 856.76 L 294.99 853.85 L 290.99 850.49 L 287.25 846.67 L 283.90 842.53 L 280.92 838.08 L 278.32 833.27 L 276.09 828.10 L 274.34 822.79 L 273.08 817.26 L 272.29 811.48 L 272.00 805.42 L 272.00 586.58 L 272.29 580.52 L 273.08 574.74 L 274.34 569.21 L 276.09 563.90 L 278.32 558.73 L 280.92 553.92 L 283.90 549.47 L 287.25 545.33 L 290.99 541.51 L 294.99 538.15 L 299.26 535.24 L 303.83 532.74 L 308.62 530.74 L 313.58 529.29 L 318.75 528.37 L 324.16 528.00 L 715.37 528.00 L 719.73 528.21 L 723.95 528.77 L 728.03 529.70 L 732.00 530.99 L 737.10 533.22 L 741.90 535.99 L 746.44 539.30 L 750.60 543.08 L 754.39 547.30 L 757.82 551.98 L 760.78 556.99 L 763.27 562.34 L 765.29 568.07 L 766.75 573.96 L 767.65 580.12 L 767.97 586.58 L 767.97 803.48 L 767.91 808.78 L 767.44 813.96 L 766.55 819.06 L 765.26 824.08 L 763.59 828.90 L 761.54 833.55 L 759.11 838.02 L 756.33 842.22 L 753.19 846.16 L 749.72 849.81 L 746.04 853.03 L 742.15 855.86 L 738.01 858.31 L 733.74 860.32 L 729.31 861.91 L 724.75 863.07 L 720.12 863.76 L 715.37 864.00 L 715.37 864.00 Z" fill="#ffffff" fill-rule="nonzero" group-id="1,2" id="路径" node-id="47" stroke="none" target-height="336" target-width="495.9712" target-x="272" target-y="528"></path></g></g></svg>