<?xml version="1.0" standalone="no"?><!DOCTYPE svg PUBLIC "-//W3C//DTD SVG 1.1//EN" "http://www.w3.org/Graphics/SVG/1.1/DTD/svg11.dtd"><svg height="1024" node-id="1" sillyvg="true" template-height="1024" template-width="1072" version="1.1" viewBox="0 0 1072 1024" width="1072" xmlns="http://www.w3.org/2000/svg" xmlns:xlink="http://www.w3.org/1999/xlink"><defs node-id="103"><radialGradient cx="0.5" cy="0.19668992" fx="0.5" fy="0.19668992" gradientTransform="matrix(0 1 -0.912281 0 0.67943655 -0.30331)" gradientUnits="objectBoundingBox" id="radialGradient-1" node-id="5" r="0.9393923" rev="3" spreadMethod="pad"><stop offset="0" stop-color="#ffe476"></stop><stop offset="0.41387266" stop-color="#fcec6c"></stop><stop offset="1" stop-color="#ffb02f"></stop></radialGradient><linearGradient gradientUnits="objectBoundingBox" id="linearGradient-9" node-id="29" spreadMethod="pad" x1="0.5" x2="0.5" y1="0.1186253" y2="1"><stop offset="0" stop-color="#ff8b9f"></stop><stop offset="1" stop-color="#ff5166"></stop></linearGradient><linearGradient gradientUnits="objectBoundingBox" id="linearGradient-12" node-id="38" spreadMethod="pad" x1="0.060048267" x2="0.95154124" y1="0.42029694" y2="0.42029694"><stop offset="0" stop-color="#eae6e1"></stop><stop offset="0.50863284" stop-color="#ffffff"></stop><stop offset="1" stop-color="#eae8e1"></stop></linearGradient><filter height="1.173" id="filter-3" node-id="10" width="1.158" x="-0.079" y="-0.087"><feGaussianBlur color-interpolation-filters="linearRGB" in="SourceAlpha" result="shadowBlurInner1" stdDeviation="64 64"></feGaussianBlur><feOffset color-interpolation-filters="linearRGB" dx="0" dy="16" in="shadowBlurInner1" result="shadowOffsetInner1"></feOffset><feComposite color-interpolation-filters="linearRGB" in="shadowOffsetInner1" in2="SourceAlpha" k1="0" k2="-1" k3="1" k4="0" operator="arithmetic" result="shadowInnerInner1"></feComposite><feColorMatrix color-interpolation-filters="linearRGB" in="shadowInnerInner1" result="result4" type="matrix" values="0 0 0 0 0.968627451 0 0 0 0 0.68627451 0 0 0 0 0.270588235 0 0 0 0.501145583 0"></feColorMatrix></filter><filter height="2.8" id="filter-4" node-id="15" width="2.636" x="-0.818" y="-0.9"><feGaussianBlur color-interpolation-filters="linearRGB" in="SourceGraphic" result="result1" stdDeviation="48 48"></feGaussianBlur></filter><filter height="2.8" id="filter-5" node-id="17" width="2.636" x="-0.818" y="-0.9"><feGaussianBlur color-interpolation-filters="linearRGB" in="SourceGraphic" result="result1" stdDeviation="48 48"></feGaussianBlur></filter><filter height="1.289" id="filter-7" node-id="20" width="1.188" x="-0.094" y="-0.145"><feOffset color-interpolation-filters="linearRGB" dx="0" dy="0" in="SourceAlpha" result="shadowOffsetOuter1"></feOffset><feGaussianBlur color-interpolation-filters="linearRGB" in="shadowOffsetOuter1" result="shadowBlurOuter1" stdDeviation="16 16"></feGaussianBlur><feColorMatrix color-interpolation-filters="linearRGB" in="shadowBlurOuter1" result="result3" type="matrix" values="0 0 0 0 1 0 0 0 0 0.948503655 0 0 0 0 0.566824862 0 0 0 1 0"></feColorMatrix></filter><filter height="1.241" id="filter-8" node-id="24" width="1.157" x="-0.078" y="-0.12"><feGaussianBlur color-interpolation-filters="linearRGB" in="SourceAlpha" result="shadowBlurInner1" stdDeviation="8 8"></feGaussianBlur><feOffset color-interpolation-filters="linearRGB" dx="0" dy="0" in="shadowBlurInner1" result="shadowOffsetInner1"></feOffset><feComposite color-interpolation-filters="linearRGB" in="shadowOffsetInner1" in2="SourceAlpha" k1="0" k2="-1" k3="1" k4="0" operator="arithmetic" result="shadowInnerInner1"></feComposite><feColorMatrix color-interpolation-filters="linearRGB" in="shadowInnerInner1" result="result4" type="matrix" values="0 0 0 0 0.661258421 0 0 0 0 0.0872254633 0 0 0 0 0.00982776113 0 0 0 1 0"></feColorMatrix></filter><filter height="1.093" id="filter-11" node-id="33" width="1.061" x="-0.03" y="-0.047"><feGaussianBlur color-interpolation-filters="linearRGB" in="SourceAlpha" result="shadowBlurInner1" stdDeviation="8 8"></feGaussianBlur><feOffset color-interpolation-filters="linearRGB" dx="0" dy="0" in="shadowBlurInner1" result="shadowOffsetInner1"></feOffset><feComposite color-interpolation-filters="linearRGB" in="shadowOffsetInner1" in2="SourceAlpha" k1="0" k2="-1" k3="1" k4="0" operator="arithmetic" result="shadowInnerInner1"></feComposite><feColorMatrix color-interpolation-filters="linearRGB" in="shadowInnerInner1" result="result4" type="matrix" values="0 0 0 0 0.661258421 0 0 0 0 0.0872254633 0 0 0 0 0.00982776113 0 0 0 1 0"></feColorMatrix></filter><filter height="1.865" id="filter-14" node-id="43" width="1.594" x="-0.297" y="-0.432"><feOffset color-interpolation-filters="linearRGB" dx="0" dy="0" in="SourceAlpha" result="shadowOffsetOuter1"></feOffset><feGaussianBlur color-interpolation-filters="linearRGB" in="shadowOffsetOuter1" result="shadowBlurOuter1" stdDeviation="16 16"></feGaussianBlur><feColorMatrix color-interpolation-filters="linearRGB" in="shadowBlurOuter1" result="result3" type="matrix" values="0 0 0 0 0.888848346 0 0 0 0 0.591702642 0 0 0 0 0.178785883 0 0 0 1 0"></feColorMatrix></filter><filter height="1.789" id="filter-16" node-id="48" width="2.531" x="-0.765" y="-0.395"><feOffset color-interpolation-filters="linearRGB" dx="0" dy="0" in="SourceAlpha" result="shadowOffsetOuter1"></feOffset><feGaussianBlur color-interpolation-filters="linearRGB" in="shadowOffsetOuter1" result="shadowBlurOuter1" stdDeviation="16 16"></feGaussianBlur><feColorMatrix color-interpolation-filters="linearRGB" in="shadowBlurOuter1" result="result3" type="matrix" values="0 0 0 0 0.888848346 0 0 0 0 0.591702642 0 0 0 0 0.178785883 0 0 0 1 0"></feColorMatrix></filter><filter height="1.425" id="filter-18" node-id="53" width="4.221" x="-1.611" y="-0.213"><feOffset color-interpolation-filters="linearRGB" dx="0" dy="0" in="SourceAlpha" result="shadowOffsetOuter1"></feOffset><feGaussianBlur color-interpolation-filters="linearRGB" in="shadowOffsetOuter1" result="shadowBlurOuter1" stdDeviation="16 16"></feGaussianBlur><feColorMatrix color-interpolation-filters="linearRGB" in="shadowBlurOuter1" result="result3" type="matrix" values="0 0 0 0 0.888848346 0 0 0 0 0.591702642 0 0 0 0 0.178785883 0 0 0 1 0"></feColorMatrix></filter><filter height="2.667" id="filter-20" node-id="58" width="2.667" x="-0.833" y="-0.667"><feOffset color-interpolation-filters="linearRGB" dx="0" dy="16" in="SourceAlpha" result="shadowOffsetOuter1"></feOffset><feGaussianBlur color-interpolation-filters="linearRGB" in="shadowOffsetOuter1" result="shadowBlurOuter1" stdDeviation="24 24"></feGaussianBlur><feColorMatrix color-interpolation-filters="linearRGB" in="shadowBlurOuter1" result="result3" type="matrix" values="0 0 0 0 0.888848346 0 0 0 0 0.591702642 0 0 0 0 0.178785883 0 0 0 1 0"></feColorMatrix></filter><filter height="2.667" id="filter-22" node-id="63" width="2.667" x="-0.833" y="-0.667"><feOffset color-interpolation-filters="linearRGB" dx="0" dy="16" in="SourceAlpha" result="shadowOffsetOuter1"></feOffset><feGaussianBlur color-interpolation-filters="linearRGB" in="shadowOffsetOuter1" result="shadowBlurOuter1" stdDeviation="24 24"></feGaussianBlur><feColorMatrix color-interpolation-filters="linearRGB" in="shadowBlurOuter1" result="result3" type="matrix" values="0 0 0 0 0.888848346 0 0 0 0 0.591702642 0 0 0 0 0.178785883 0 0 0 1 0"></feColorMatrix></filter></defs><g node-id="333"><path d="M 0.00 0.00 L 1024.00 0.00 L 1024.00 1024.00 L 0.00 1024.00 Z" fill="none" group-id="1" id="矩形备份-4" node-id="69" stroke="none" target-height="1024" target-width="1024" target-x="0" target-y="0"></path><g node-id="334"><g node-id="341"><path d="M 486.86 96.38 C 606.07 90.63 708.76 150.68 758.05 248.07 C 890.94 307.20 998.79 448.58 971.84 605.75 C 951.63 723.61 887.20 809.73 792.89 862.38 C 746.43 892.44 680.20 913.75 581.85 923.53 C 302.34 951.30 80.98 850.50 64.82 598.22 C 56.85 473.83 107.42 389.95 190.97 336.88 C 221.60 181.87 333.84 103.75 486.86 96.38 Z" fill="url(#radialGradient-1)" fill-rule="evenodd" group-id="1,2,9" node-id="220" stroke="none" target-height="860.6705" target-width="941.9407" target-x="56.854" target-y="90.63337"></path></g><path d="M 486.86 96.38 C 606.07 90.63 708.76 150.68 758.05 248.07 C 890.94 307.20 998.79 448.58 971.84 605.75 C 951.63 723.61 887.20 809.73 792.89 862.38 C 746.43 892.44 680.20 913.75 581.85 923.53 C 302.34 951.30 80.98 850.50 64.82 598.22 C 56.85 473.83 107.42 389.95 190.97 336.88 C 221.60 181.87 333.84 103.75 486.86 96.38 Z" fill="#000000" fill-rule="evenodd" filter="url(#filter-3)" group-id="1,2,10" node-id="225" stroke="none" target-height="860.6705" target-width="941.9407" target-x="56.854" target-y="90.63337"></path></g><g node-id="335"><path d="M 928.00 552.00 C 928.00 596.18 888.60 632.00 840.00 632.00 C 791.40 632.00 752.00 596.18 752.00 552.00 C 752.00 507.82 791.40 472.00 840.00 472.00 C 888.60 472.00 928.00 507.82 928.00 552.00 Z" fill="#ff5ea4" fill-opacity="0.8" fill-rule="evenodd" filter="url(#filter-4)" group-id="1,3" id="椭圆形" node-id="73" stroke="none" target-height="160" target-width="176" target-x="752" target-y="472"></path></g><g node-id="336"><path d="M 336.00 616.00 C 336.00 660.18 296.60 696.00 248.00 696.00 C 199.40 696.00 160.00 660.18 160.00 616.00 C 160.00 571.82 199.40 536.00 248.00 536.00 C 296.60 536.00 336.00 571.82 336.00 616.00 Z" fill="#ff5ea4" fill-opacity="0.8" fill-rule="evenodd" filter="url(#filter-5)" group-id="1,4" id="椭圆形备份-6" node-id="74" stroke="none" target-height="160" target-width="176" target-x="160" target-y="536"></path></g><g node-id="337"><g node-id="343"><g node-id="352"><path d="M 403.30 556.35 L 384.57 554.76 L 367.41 553.88 L 351.70 553.63 L 337.36 553.98 L 324.29 554.86 L 312.39 556.23 L 301.59 558.03 L 291.81 560.24 L 282.95 562.82 L 274.96 565.73 L 267.76 568.95 L 261.28 572.46 L 255.48 576.26 L 250.30 580.32 L 245.69 584.66 L 241.62 589.28 L 238.05 594.19 L 234.97 599.42 L 232.37 604.99 L 230.24 610.93 L 228.59 617.27 L 227.17 625.03 L 226.14 633.58 L 225.53 643.00 L 225.41 652.41 L 225.78 662.38 L 226.67 672.95 L 228.07 683.45 L 230.05 694.27 L 232.65 705.43 L 235.79 716.44 L 239.60 727.53 L 244.10 738.71 L 247.86 746.92 L 252.04 755.05 L 256.64 763.10 L 261.67 771.10 L 267.05 778.81 L 272.88 786.34 L 279.19 793.69 L 286.00 800.88 L 293.12 807.65 L 300.76 814.15 L 308.95 820.38 L 317.72 826.34 L 326.71 831.74 L 336.30 836.79 L 346.55 841.46 L 357.47 845.76 L 366.20 848.71 L 375.38 851.37 L 385.04 853.71 L 395.21 855.75 L 405.90 857.45 L 416.33 858.68 L 427.29 859.54 L 438.81 860.01 L 450.92 860.06 L 463.65 859.68 L 479.49 858.59 L 494.62 857.00 L 509.08 854.93 L 522.89 852.40 L 536.09 849.43 L 549.49 845.85 L 562.26 841.89 L 574.42 837.57 L 585.99 832.89 L 597.01 827.88 L 608.04 822.29 L 618.49 816.44 L 628.39 810.32 L 637.76 803.96 L 646.62 797.34 L 655.34 790.22 L 663.52 782.95 L 671.21 775.50 L 678.40 767.90 L 685.12 760.12 L 691.59 751.95 L 697.56 743.71 L 703.07 735.40 L 708.11 727.01 L 712.70 718.54 L 716.98 709.77 L 720.79 701.02 L 724.16 692.30 L 727.08 683.60 L 729.57 674.90 L 732.17 663.78 L 734.08 652.86 L 735.33 642.12 L 735.93 631.53 L 735.96 622.95 L 735.57 614.60 L 734.77 606.45 L 733.57 598.50 L 731.98 590.73 L 730.11 583.76 L 727.99 577.44 L 725.65 571.70 L 723.09 566.52 L 720.34 561.84 L 716.30 556.13 L 712.00 551.10 L 707.43 546.71 L 702.59 542.92 L 697.38 539.55 L 691.96 536.66 L 686.31 534.24 L 680.42 532.27 L 674.41 530.72 L 668.26 529.52 L 661.96 528.68 L 655.51 528.19 L 646.89 528.01 L 638.23 528.28 L 629.52 529.00 L 620.84 530.09 L 612.38 531.42 L 604.14 533.01 L 592.01 535.72 L 581.03 538.51 L 561.89 543.81 L 553.91 545.96 L 548.37 547.22 L 539.57 548.60 L 526.41 550.08 L 507.65 551.64 L 481.93 553.23 L 447.71 554.81 L 403.30 556.35 Z" fill="#000000" fill-rule="evenodd" filter="url(#filter-7)" group-id="1,5,11,20" node-id="241" stroke="none" target-height="332.04987" target-width="510.55212" target-x="225.40538" target-y="528.01434"></path></g><g node-id="353"><path d="M 403.30 556.35 L 384.57 554.76 L 367.41 553.88 L 351.70 553.63 L 337.36 553.98 L 324.29 554.86 L 312.39 556.23 L 301.59 558.03 L 291.81 560.24 L 282.95 562.82 L 274.96 565.73 L 267.76 568.95 L 261.28 572.46 L 255.48 576.26 L 250.30 580.32 L 245.69 584.66 L 241.62 589.28 L 238.05 594.19 L 234.97 599.42 L 232.37 604.99 L 230.24 610.93 L 228.59 617.27 L 227.17 625.03 L 226.14 633.58 L 225.53 643.00 L 225.41 652.41 L 225.78 662.38 L 226.67 672.95 L 228.07 683.45 L 230.05 694.27 L 232.65 705.43 L 235.79 716.44 L 239.60 727.53 L 244.10 738.71 L 247.86 746.92 L 252.04 755.05 L 256.64 763.10 L 261.67 771.10 L 267.05 778.81 L 272.88 786.34 L 279.19 793.69 L 286.00 800.88 L 293.12 807.65 L 300.76 814.15 L 308.95 820.38 L 317.72 826.34 L 326.71 831.74 L 336.30 836.79 L 346.55 841.46 L 357.47 845.76 L 366.20 848.71 L 375.38 851.37 L 385.04 853.71 L 395.21 855.75 L 405.90 857.45 L 416.33 858.68 L 427.29 859.54 L 438.81 860.01 L 450.92 860.06 L 463.65 859.68 L 479.49 858.59 L 494.62 857.00 L 509.08 854.93 L 522.89 852.40 L 536.09 849.43 L 549.49 845.85 L 562.26 841.89 L 574.42 837.57 L 585.99 832.89 L 597.01 827.88 L 608.04 822.29 L 618.49 816.44 L 628.39 810.32 L 637.76 803.96 L 646.62 797.34 L 655.34 790.22 L 663.52 782.95 L 671.21 775.50 L 678.40 767.90 L 685.12 760.12 L 691.59 751.95 L 697.56 743.71 L 703.07 735.40 L 708.11 727.01 L 712.70 718.54 L 716.98 709.77 L 720.79 701.02 L 724.16 692.30 L 727.08 683.60 L 729.57 674.90 L 732.17 663.78 L 734.08 652.86 L 735.33 642.12 L 735.93 631.53 L 735.96 622.95 L 735.57 614.60 L 734.77 606.45 L 733.57 598.50 L 731.98 590.73 L 730.11 583.76 L 727.99 577.44 L 725.65 571.70 L 723.09 566.52 L 720.34 561.84 L 716.30 556.13 L 712.00 551.10 L 707.43 546.71 L 702.59 542.92 L 697.38 539.55 L 691.96 536.66 L 686.31 534.24 L 680.42 532.27 L 674.41 530.72 L 668.26 529.52 L 661.96 528.68 L 655.51 528.19 L 646.89 528.01 L 638.23 528.28 L 629.52 529.00 L 620.84 530.09 L 612.38 531.42 L 604.14 533.01 L 592.01 535.72 L 581.03 538.51 L 561.89 543.81 L 553.91 545.96 L 548.37 547.22 L 539.57 548.60 L 526.41 550.08 L 507.65 551.64 L 481.93 553.23 L 447.71 554.81 L 403.30 556.35 Z" fill="#ed1f2a" fill-rule="evenodd" group-id="1,5,11,21" node-id="246" stroke="none" target-height="332.04987" target-width="510.55212" target-x="225.40538" target-y="528.01434"></path></g><path d="M 403.30 556.35 L 384.57 554.76 L 367.41 553.88 L 351.70 553.63 L 337.36 553.98 L 324.29 554.86 L 312.39 556.23 L 301.59 558.03 L 291.81 560.24 L 282.95 562.82 L 274.96 565.73 L 267.76 568.95 L 261.28 572.46 L 255.48 576.26 L 250.30 580.32 L 245.69 584.66 L 241.62 589.28 L 238.05 594.19 L 234.97 599.42 L 232.37 604.99 L 230.24 610.93 L 228.59 617.27 L 227.17 625.03 L 226.14 633.58 L 225.53 643.00 L 225.41 652.41 L 225.78 662.38 L 226.67 672.95 L 228.07 683.45 L 230.05 694.27 L 232.65 705.43 L 235.79 716.44 L 239.60 727.53 L 244.10 738.71 L 247.86 746.92 L 252.04 755.05 L 256.64 763.10 L 261.67 771.10 L 267.05 778.81 L 272.88 786.34 L 279.19 793.69 L 286.00 800.88 L 293.12 807.65 L 300.76 814.15 L 308.95 820.38 L 317.72 826.34 L 326.71 831.74 L 336.30 836.79 L 346.55 841.46 L 357.47 845.76 L 366.20 848.71 L 375.38 851.37 L 385.04 853.71 L 395.21 855.75 L 405.90 857.45 L 416.33 858.68 L 427.29 859.54 L 438.81 860.01 L 450.92 860.06 L 463.65 859.68 L 479.49 858.59 L 494.62 857.00 L 509.08 854.93 L 522.89 852.40 L 536.09 849.43 L 549.49 845.85 L 562.26 841.89 L 574.42 837.57 L 585.99 832.89 L 597.01 827.88 L 608.04 822.29 L 618.49 816.44 L 628.39 810.32 L 637.76 803.96 L 646.62 797.34 L 655.34 790.22 L 663.52 782.95 L 671.21 775.50 L 678.40 767.90 L 685.12 760.12 L 691.59 751.95 L 697.56 743.71 L 703.07 735.40 L 708.11 727.01 L 712.70 718.54 L 716.98 709.77 L 720.79 701.02 L 724.16 692.30 L 727.08 683.60 L 729.57 674.90 L 732.17 663.78 L 734.08 652.86 L 735.33 642.12 L 735.93 631.53 L 735.96 622.95 L 735.57 614.60 L 734.77 606.45 L 733.57 598.50 L 731.98 590.73 L 730.11 583.76 L 727.99 577.44 L 725.65 571.70 L 723.09 566.52 L 720.34 561.84 L 716.30 556.13 L 712.00 551.10 L 707.43 546.71 L 702.59 542.92 L 697.38 539.55 L 691.96 536.66 L 686.31 534.24 L 680.42 532.27 L 674.41 530.72 L 668.26 529.52 L 661.96 528.68 L 655.51 528.19 L 646.89 528.01 L 638.23 528.28 L 629.52 529.00 L 620.84 530.09 L 612.38 531.42 L 604.14 533.01 L 592.01 535.72 L 581.03 538.51 L 561.89 543.81 L 553.91 545.96 L 548.37 547.22 L 539.57 548.60 L 526.41 550.08 L 507.65 551.64 L 481.93 553.23 L 447.71 554.81 L 403.30 556.35 Z" fill="#000000" fill-rule="evenodd" filter="url(#filter-8)" group-id="1,5,11,22" node-id="251" stroke="none" target-height="332.04987" target-width="510.55212" target-x="225.40538" target-y="528.01434"></path></g><path d="M 620.35 638.30 L 635.53 638.61 L 650.39 639.49 L 664.92 640.93 L 679.14 642.91 L 693.36 645.48 L 707.16 648.55 L 720.56 652.09 L 733.58 656.11 L 731.70 666.06 L 729.26 676.07 L 726.25 686.17 L 722.64 696.36 L 718.56 706.29 L 713.90 716.18 L 708.64 726.03 L 702.76 735.87 L 696.45 745.33 L 689.53 754.64 L 681.97 763.82 L 673.77 772.85 L 666.97 779.71 L 659.75 786.40 L 652.11 792.93 L 644.04 799.30 L 635.52 805.51 L 626.90 811.29 L 617.84 816.83 L 608.32 822.15 L 598.33 827.23 L 587.85 832.07 L 577.40 836.42 L 566.47 840.46 L 555.05 844.20 L 543.10 847.62 L 530.61 850.72 L 518.32 853.30 L 505.50 855.50 L 492.13 857.31 L 478.18 858.71 L 463.65 859.68 L 451.55 860.06 L 440.01 860.04 L 429.01 859.64 L 418.52 858.88 L 407.90 857.71 L 397.79 856.21 L 388.15 854.40 L 378.96 852.28 L 369.75 849.77 L 360.98 846.99 L 352.63 843.95 L 344.68 840.67 L 345.00 831.08 L 345.90 821.66 L 347.36 812.40 L 349.39 803.27 L 351.99 794.27 L 355.11 785.44 L 358.74 776.77 L 362.88 768.26 L 367.54 759.90 L 372.74 751.67 L 378.32 743.78 L 384.34 736.09 L 390.84 728.58 L 397.82 721.25 L 405.29 714.09 L 412.99 707.36 L 421.09 700.86 L 429.62 694.59 L 438.57 688.55 L 447.98 682.75 L 457.49 677.39 L 467.35 672.32 L 477.57 667.54 L 488.17 663.05 L 499.15 658.87 L 510.15 655.12 L 521.44 651.72 L 533.03 648.67 L 544.94 645.98 L 557.16 643.64 L 569.32 641.75 L 581.71 640.27 L 594.34 639.19 L 607.22 638.53 L 620.35 638.30 Z" fill="url(#linearGradient-9)" fill-rule="evenodd" group-id="1,5" id="形状结合" node-id="80" stroke="none" target-height="221.76416" target-width="388.90155" target-x="344.675" target-y="638.29895"></path><path d="M 403.30 556.35 L 384.57 554.76 L 367.41 553.88 L 351.70 553.63 L 337.36 553.98 L 324.29 554.86 L 312.39 556.23 L 301.59 558.03 L 291.81 560.24 L 282.95 562.82 L 274.96 565.73 L 267.76 568.95 L 261.28 572.46 L 255.48 576.26 L 250.30 580.32 L 245.69 584.66 L 241.62 589.28 L 238.05 594.19 L 234.97 599.42 L 232.37 604.99 L 230.24 610.93 L 228.59 617.27 L 227.17 625.03 L 226.14 633.58 L 225.53 643.00 L 225.41 652.41 L 225.78 662.38 L 226.67 672.95 L 228.07 683.45 L 230.05 694.27 L 232.65 705.43 L 235.79 716.44 L 239.60 727.53 L 244.10 738.71 L 247.86 746.92 L 252.04 755.05 L 256.64 763.10 L 261.67 771.10 L 267.05 778.81 L 272.88 786.34 L 279.19 793.69 L 286.00 800.88 L 293.12 807.65 L 300.76 814.15 L 308.95 820.38 L 317.72 826.34 L 326.71 831.74 L 336.30 836.79 L 346.55 841.46 L 357.47 845.76 L 366.20 848.71 L 375.38 851.37 L 385.04 853.71 L 395.21 855.75 L 405.90 857.45 L 416.33 858.68 L 427.29 859.54 L 438.81 860.01 L 450.92 860.06 L 463.65 859.68 L 479.49 858.59 L 494.62 857.00 L 509.08 854.93 L 522.89 852.40 L 536.09 849.43 L 549.49 845.85 L 562.26 841.89 L 574.42 837.57 L 585.99 832.89 L 597.01 827.88 L 608.04 822.29 L 618.49 816.44 L 628.39 810.32 L 637.76 803.96 L 646.62 797.34 L 655.34 790.22 L 663.52 782.95 L 671.21 775.50 L 678.40 767.90 L 685.12 760.12 L 691.59 751.95 L 697.56 743.71 L 703.07 735.40 L 708.11 727.01 L 712.70 718.54 L 716.98 709.77 L 720.79 701.02 L 724.16 692.30 L 727.08 683.60 L 729.57 674.90 L 732.17 663.78 L 734.08 652.86 L 735.33 642.12 L 735.93 631.53 L 735.96 622.95 L 735.57 614.60 L 734.77 606.45 L 733.57 598.50 L 731.98 590.73 L 730.11 583.76 L 727.99 577.44 L 725.65 571.70 L 723.09 566.52 L 720.34 561.84 L 716.30 556.13 L 712.00 551.10 L 707.43 546.71 L 702.59 542.92 L 697.38 539.55 L 691.96 536.66 L 686.31 534.24 L 680.42 532.27 L 674.41 530.72 L 668.26 529.52 L 661.96 528.68 L 655.51 528.19 L 646.89 528.01 L 638.23 528.28 L 629.52 529.00 L 620.84 530.09 L 612.38 531.42 L 604.14 533.01 L 592.01 535.72 L 581.03 538.51 L 561.89 543.81 L 553.91 545.96 L 548.37 547.22 L 539.57 548.60 L 526.41 550.08 L 507.65 551.64 L 481.93 553.23 L 447.71 554.81 L 403.30 556.35 Z" fill="#000000" fill-rule="evenodd" filter="url(#filter-11)" group-id="1,5,12,23" node-id="259" stroke="none" target-height="332.04987" target-width="510.55212" target-x="225.40538" target-y="528.01434"></path><path d="M 403.30 556.35 L 384.57 554.76 L 367.41 553.88 L 351.70 553.63 L 337.36 553.98 L 324.29 554.86 L 312.39 556.23 L 301.59 558.03 L 291.81 560.24 L 282.95 562.82 L 274.96 565.73 L 267.76 568.95 L 261.28 572.46 L 255.48 576.26 L 250.30 580.32 L 245.69 584.66 L 241.62 589.28 L 238.05 594.19 L 234.97 599.42 L 232.37 604.99 L 230.24 610.93 L 228.59 617.27 L 227.17 625.03 L 226.14 633.58 L 225.53 643.00 L 225.41 652.41 L 225.78 662.38 L 226.67 672.95 L 228.07 683.45 L 230.05 694.27 L 232.65 705.43 L 235.79 716.44 L 239.60 727.53 L 244.10 738.71 L 247.86 746.92 L 252.04 755.05 L 256.64 763.10 L 261.67 771.10 L 267.05 778.81 L 272.88 786.34 L 279.19 793.69 L 286.00 800.88 L 293.12 807.65 L 300.76 814.15 L 308.95 820.38 L 317.72 826.34 L 326.71 831.74 L 336.30 836.79 L 346.55 841.46 L 357.47 845.76 L 366.20 848.71 L 375.38 851.37 L 385.04 853.71 L 395.21 855.75 L 405.90 857.45 L 416.33 858.68 L 427.29 859.54 L 438.81 860.01 L 450.92 860.06 L 463.65 859.68 L 479.49 858.59 L 494.62 857.00 L 509.08 854.93 L 522.89 852.40 L 536.09 849.43 L 549.49 845.85 L 562.26 841.89 L 574.42 837.57 L 585.99 832.89 L 597.01 827.88 L 608.04 822.29 L 618.49 816.44 L 628.39 810.32 L 637.76 803.96 L 646.62 797.34 L 655.34 790.22 L 663.52 782.95 L 671.21 775.50 L 678.40 767.90 L 685.12 760.12 L 691.59 751.95 L 697.56 743.71 L 703.07 735.40 L 708.11 727.01 L 712.70 718.54 L 716.98 709.77 L 720.79 701.02 L 724.16 692.30 L 727.08 683.60 L 729.57 674.90 L 732.17 663.78 L 734.08 652.86 L 735.33 642.12 L 735.93 631.53 L 735.96 622.95 L 735.57 614.60 L 734.77 606.45 L 733.57 598.50 L 731.98 590.73 L 730.11 583.76 L 727.99 577.44 L 725.65 571.70 L 723.09 566.52 L 720.34 561.84 L 716.30 556.13 L 712.00 551.10 L 707.43 546.71 L 702.59 542.92 L 697.38 539.55 L 691.96 536.66 L 686.31 534.24 L 680.42 532.27 L 674.41 530.72 L 668.26 529.52 L 661.96 528.68 L 655.51 528.19 L 646.89 528.01 L 638.23 528.28 L 629.52 529.00 L 620.84 530.09 L 612.38 531.42 L 604.14 533.01 L 592.01 535.72 L 581.03 538.51 L 561.89 543.81 L 553.91 545.96 L 548.37 547.22 L 539.57 548.60 L 526.41 550.08 L 507.65 551.64 L 481.93 553.23 L 447.71 554.81 L 403.30 556.35 Z" fill="none" group-id="1,5,12,24" node-id="264" stroke="#ad371e" stroke-linecap="butt" stroke-width="14.90115" target-height="332.04987" target-width="510.55212" target-x="225.40538" target-y="528.01434"></path><path d="M 309.50 564.83 L 309.76 574.07 L 310.46 581.42 L 311.51 587.17 L 312.82 591.58 L 314.31 594.90 L 315.95 597.33 L 317.71 599.05 L 319.60 600.17 L 321.67 600.78 L 323.99 600.88 L 326.65 600.41 L 329.94 599.74 L 336.93 598.72 L 356.04 596.56 L 381.85 594.09 L 412.25 591.46 L 445.10 588.81 L 478.27 586.31 L 509.63 584.10 L 537.06 582.34 L 558.42 581.17 L 571.59 580.75 L 575.62 580.50 L 579.07 579.79 L 582.02 578.68 L 584.56 577.18 L 586.74 575.30 L 588.59 572.99 L 590.13 570.19 L 591.34 566.84 L 592.18 562.82 L 592.60 558.02 L 592.51 552.33 L 591.81 545.59 L 590.41 537.67 L 566.86 543.99 L 545.00 549.34 L 524.72 553.78 L 505.93 557.38 L 488.57 560.20 L 472.53 562.30 L 457.74 563.74 L 444.12 564.56 L 431.60 564.83 L 309.50 564.83 Z" fill="url(#linearGradient-12)" fill-rule="evenodd" group-id="1,5" id="路径-58" node-id="84" stroke="none" target-height="63.212097" target-width="283.10193" target-x="309.4953" target-y="537.669"></path><path d="M 299.03 655.38 L 301.48 654.17 L 303.96 653.45 L 306.51 653.18 L 309.06 653.36 L 311.50 653.95 L 313.86 654.97 L 316.00 656.38 L 317.88 658.16 L 319.51 660.37 L 320.64 662.65 L 321.36 664.97 L 321.67 667.35 L 321.61 669.74 L 321.19 672.05 L 320.40 674.30 L 319.26 676.40 L 317.80 678.29 L 315.99 679.99 L 314.55 680.99 L 182.67 762.01 L 180.21 763.22 L 177.73 763.94 L 175.19 764.20 L 172.63 764.03 L 170.19 763.43 L 167.84 762.41 L 165.70 761.01 L 163.82 759.22 L 162.18 757.02 L 161.05 754.73 L 160.34 752.41 L 160.02 750.04 L 160.08 747.64 L 160.51 745.33 L 161.30 743.08 L 162.43 740.98 L 163.89 739.10 L 165.71 737.40 L 167.14 736.40 L 299.03 655.38 Z" fill="#000000" fill-rule="nonzero" filter="url(#filter-14)" group-id="1,5,13,25" node-id="272" stroke="none" target-height="111.020386" target-width="161.65012" target-x="160.02243" target-y="653.1821"></path><path d="M 299.03 655.38 L 301.48 654.17 L 303.96 653.45 L 306.51 653.18 L 309.06 653.36 L 311.50 653.95 L 313.86 654.97 L 316.00 656.38 L 317.88 658.16 L 319.51 660.37 L 320.64 662.65 L 321.36 664.97 L 321.67 667.35 L 321.61 669.74 L 321.19 672.05 L 320.40 674.30 L 319.26 676.40 L 317.80 678.29 L 315.99 679.99 L 314.55 680.99 L 182.67 762.01 L 180.21 763.22 L 177.73 763.94 L 175.19 764.20 L 172.63 764.03 L 170.19 763.43 L 167.84 762.41 L 165.70 761.01 L 163.82 759.22 L 162.18 757.02 L 161.05 754.73 L 160.34 752.41 L 160.02 750.04 L 160.08 747.64 L 160.51 745.33 L 161.30 743.08 L 162.43 740.98 L 163.89 739.10 L 165.71 737.40 L 167.14 736.40 L 299.03 655.38 Z" fill="#ffffff" fill-rule="nonzero" group-id="1,5,13,26" node-id="277" stroke="none" target-height="111.020386" target-width="161.65012" target-x="160.02243" target-y="653.1821"></path><path d="M 295.48 744.10 L 296.65 741.61 L 298.13 739.49 L 299.95 737.68 L 302.06 736.21 L 304.33 735.13 L 306.80 734.45 L 309.34 734.20 L 311.92 734.41 L 314.56 735.10 L 316.87 736.17 L 318.86 737.53 L 320.59 739.18 L 322.03 741.09 L 323.13 743.16 L 323.91 745.41 L 324.33 747.76 L 324.37 750.15 L 324.00 752.62 L 323.51 754.30 L 290.60 845.90 L 289.44 848.39 L 287.95 850.51 L 286.13 852.32 L 284.02 853.79 L 281.75 854.87 L 279.28 855.55 L 276.74 855.80 L 274.16 855.59 L 271.52 854.90 L 269.22 853.83 L 267.22 852.47 L 265.50 850.82 L 264.06 848.91 L 262.95 846.84 L 262.17 844.59 L 261.75 842.24 L 261.72 839.85 L 262.08 837.37 L 262.57 835.70 L 295.48 744.10 Z" fill="#000000" fill-rule="nonzero" filter="url(#filter-16)" group-id="1,5,14,27" node-id="284" stroke="none" target-height="121.60852" target-width="62.650024" target-x="261.71652" target-y="734.1957"></path><path d="M 295.48 744.10 L 296.65 741.61 L 298.13 739.49 L 299.95 737.68 L 302.06 736.21 L 304.33 735.13 L 306.80 734.45 L 309.34 734.20 L 311.92 734.41 L 314.56 735.10 L 316.87 736.17 L 318.86 737.53 L 320.59 739.18 L 322.03 741.09 L 323.13 743.16 L 323.91 745.41 L 324.33 747.76 L 324.37 750.15 L 324.00 752.62 L 323.51 754.30 L 290.60 845.90 L 289.44 848.39 L 287.95 850.51 L 286.13 852.32 L 284.02 853.79 L 281.75 854.87 L 279.28 855.55 L 276.74 855.80 L 274.16 855.59 L 271.52 854.90 L 269.22 853.83 L 267.22 852.47 L 265.50 850.82 L 264.06 848.91 L 262.95 846.84 L 262.17 844.59 L 261.75 842.24 L 261.72 839.85 L 262.08 837.37 L 262.57 835.70 L 295.48 744.10 Z" fill="#ffffff" fill-rule="nonzero" group-id="1,5,14,28" node-id="289" stroke="none" target-height="121.60852" target-width="62.650024" target-x="261.71652" target-y="734.1957"></path><path d="M 439.91 734.20 L 442.44 734.42 L 444.78 735.02 L 446.96 735.98 L 448.96 737.28 L 450.70 738.85 L 452.19 740.70 L 453.38 742.77 L 454.22 745.01 L 454.71 747.45 L 454.81 749.20 L 454.81 945.00 L 454.56 947.74 L 453.88 950.25 L 452.78 952.57 L 451.30 954.68 L 449.52 956.46 L 447.43 957.95 L 445.13 959.06 L 442.63 959.75 L 439.91 960.00 L 437.39 959.78 L 435.05 959.19 L 432.87 958.22 L 430.87 956.92 L 429.13 955.35 L 427.63 953.50 L 426.45 951.44 L 425.61 949.20 L 425.11 946.75 L 425.01 945.00 L 425.01 749.20 L 425.27 746.46 L 425.95 743.96 L 427.05 741.63 L 428.53 739.53 L 430.30 737.74 L 432.39 736.25 L 434.70 735.14 L 437.19 734.46 L 439.91 734.20 Z" fill="#000000" fill-rule="nonzero" filter="url(#filter-18)" group-id="1,5,15,29" node-id="296" stroke="none" target-height="225.79688" target-width="29.802277" target-x="425.0125" target-y="734.2031"></path><path d="M 439.91 734.20 L 442.44 734.42 L 444.78 735.02 L 446.96 735.98 L 448.96 737.28 L 450.70 738.85 L 452.19 740.70 L 453.38 742.77 L 454.22 745.01 L 454.71 747.45 L 454.81 749.20 L 454.81 945.00 L 454.56 947.74 L 453.88 950.25 L 452.78 952.57 L 451.30 954.68 L 449.52 956.46 L 447.43 957.95 L 445.13 959.06 L 442.63 959.75 L 439.91 960.00 L 437.39 959.78 L 435.05 959.19 L 432.87 958.22 L 430.87 956.92 L 429.13 955.35 L 427.63 953.50 L 426.45 951.44 L 425.61 949.20 L 425.11 946.75 L 425.01 945.00 L 425.01 749.20 L 425.27 746.46 L 425.95 743.96 L 427.05 741.63 L 428.53 739.53 L 430.30 737.74 L 432.39 736.25 L 434.70 735.14 L 437.19 734.46 L 439.91 734.20 Z" fill="#ffffff" fill-rule="nonzero" group-id="1,5,15,30" node-id="301" stroke="none" target-height="225.79688" target-width="29.802277" target-x="425.0125" target-y="734.2031"></path></g><path d="M 247.75 304.50 C 252.88 298.16 261.86 296.76 268.61 300.96 L 270.25 302.12 L 377.41 388.10 C 384.28 393.66 385.34 403.73 379.78 410.60 C 374.65 416.94 365.67 418.34 358.92 414.14 L 357.28 412.98 L 250.12 327.00 C 243.25 321.44 242.19 311.37 247.75 304.50 Z" fill="#9f531e" fill-rule="nonzero" group-id="1" id="路径-54" node-id="94" stroke="none" target-height="121.57376" target-width="143.15422" target-x="242.1888" target-y="296.76346"></path><path d="M 707.63 241.27 L 705.75 239.31 L 703.69 237.77 L 701.44 236.60 L 699.02 235.80 L 696.57 235.39 L 694.03 235.37 L 691.53 235.75 L 689.12 236.53 L 686.76 237.73 L 685.13 238.89 L 535.32 356.10 L 533.22 358.15 L 531.60 360.40 L 530.41 362.88 L 529.67 365.53 L 529.39 368.21 L 529.56 370.95 L 530.20 373.62 L 531.32 376.16 L 532.94 378.60 L 534.82 380.56 L 536.88 382.10 L 539.13 383.27 L 541.55 384.07 L 544.01 384.48 L 546.54 384.50 L 549.04 384.12 L 551.45 383.34 L 553.81 382.14 L 555.45 380.98 L 705.25 263.77 L 707.35 261.72 L 708.97 259.47 L 710.16 256.99 L 710.90 254.34 L 711.19 251.66 L 711.01 248.92 L 710.37 246.25 L 709.25 243.71 L 707.63 241.27 Z" fill="#9f531e" fill-rule="nonzero" group-id="1,6" id="路径-54备份" node-id="95" stroke="none" target-height="149.12733" target-width="181.79974" target-x="529.3857" target-y="235.37083"></path><path d="M 360.00 456.00 C 360.00 482.51 338.51 504.00 312.00 504.00 C 285.49 504.00 264.00 482.51 264.00 456.00 C 264.00 429.49 285.49 408.00 312.00 408.00 C 338.51 408.00 360.00 429.49 360.00 456.00 Z" fill="#000000" fill-rule="evenodd" filter="url(#filter-20)" group-id="1,7,16" node-id="314" stroke="none" target-height="96" target-width="96" target-x="264" target-y="408"></path><path d="M 360.00 456.00 C 360.00 482.51 338.51 504.00 312.00 504.00 C 285.49 504.00 264.00 482.51 264.00 456.00 C 264.00 429.49 285.49 408.00 312.00 408.00 C 338.51 408.00 360.00 429.49 360.00 456.00 Z" fill="#5b2500" fill-rule="evenodd" group-id="1,7,17" node-id="319" stroke="none" target-height="96" target-width="96" target-x="264" target-y="408"></path><path d="M 632.00 440.00 C 632.00 466.51 610.51 488.00 584.00 488.00 C 557.49 488.00 536.00 466.51 536.00 440.00 C 536.00 413.49 557.49 392.00 584.00 392.00 C 610.51 392.00 632.00 413.49 632.00 440.00 Z" fill="#000000" fill-rule="evenodd" filter="url(#filter-22)" group-id="1,8,18" node-id="326" stroke="none" target-height="96" target-width="96" target-x="536" target-y="392"></path><path d="M 632.00 440.00 C 632.00 466.51 610.51 488.00 584.00 488.00 C 557.49 488.00 536.00 466.51 536.00 440.00 C 536.00 413.49 557.49 392.00 584.00 392.00 C 610.51 392.00 632.00 413.49 632.00 440.00 Z" fill="#5b2500" fill-rule="evenodd" group-id="1,8,19" node-id="331" stroke="none" target-height="96" target-width="96" target-x="536" target-y="392"></path></g></svg>